{
  "source": "C:\\Users\\Peter\\Desktop\\stuff\\MIUN\\quantitative_research\\video_compression\\videos\\BVI-HD\\BVI-HD_CDVL_videos\\ORIG\\Hamster_1920x1080_60fps.mp4",
  "output": "C:\\Users\\Peter\\Desktop\\stuff\\MIUN\\quantitative_research\\video_compression\\compressed_videos\\BVI-HD\\vp9\\1.5\\Hamster_1920x1080_60fps_vp9.webm",
  "codec": "vp9",
  "ok": "Input #0, mov,mp4,m4a,3gp,3g2,mj2, from 'C:\\Users\\Peter\\Desktop\\stuff\\MIUN\\quantitative_research\\video_compression\\videos\\BVI-HD\\BVI-HD_CDVL_videos\\ORIG\\Hamster_1920x1080_60fps.mp4':\n  Metadata:\n    major_brand     : isom\n    minor_version   : 512\n    compatible_brands: isomiso2avc1mp41\n    encoder         : Lavf54.28.101\n  Duration: 00:00:05.00, start: 0.000000, bitrate: 208485 kb/s\n  Stream #0:0[0x1](und): Video: h264 (High 4:4:4 Predictive) (avc1 / 0x31637661), yuv420p(progressive), 1920x1080, 208481 kb/s, 60 fps, 60 tbr, 60 tbn (default)\n    Metadata:\n      handler_name    : VideoHandler\n      vendor_id       : [0][0][0][0]\n[out#0/webm @ 00000237a3228f80] Codec AVOption b:a (set bitrate (in bits/s)) has not been used for any stream. The most likely reason is either wrong type (e.g. a video option with no video streams) or that it is a private option of some decoder which was not actually used for any stream.\nStream mapping:\n  Stream #0:0 -> #0:0 (h264 (native) -> vp9 (libvpx-vp9))\nPress [q] to stop, [?] for help\n[libvpx-vp9 @ 00000237a39aa1c0] v1.15.2-100-g40561f514\nOutput #0, webm, to 'C:\\Users\\Peter\\Desktop\\stuff\\MIUN\\quantitative_research\\video_compression\\compressed_videos\\BVI-HD\\vp9\\1.5\\Hamster_1920x1080_60fps_vp9.webm':\n  Metadata:\n    major_brand     : isom\n    minor_version   : 512\n    compatible_brands: isomiso2avc1mp41\n    encoder         : Lavf62.3.100\n  Stream #0:0(und): Video: vp9, yuv420p(tv, progressive), 1920x1080, q=2-31, 1500 kb/s, 60 fps, 1k tbn (default)\n    Metadata:\n      encoder         : Lavc62.11.100 libvpx-vp9\n      handler_name    : VideoHandler\n      vendor_id       : [0][0][0][0]\n    Side data:\n      cpb: bitrate max/min/avg: 0/0/0 buffer size: 1500000 vbv_delay: N/A\nframe=    0 fps=0.0 q=0.0 size=       0KiB time=N/A bitrate=N/A speed=N/A elapsed=0:00:00.50    \nframe=    2 fps=1.5 q=63.0 size=       1KiB time=00:00:00.01 bitrate= 303.8kbits/s speed=0.0122x elapsed=0:00:01.36    \nframe=    4 fps=2.0 q=59.0 size=       1KiB time=00:00:00.06 bitrate=  76.0kbits/s speed=0.0325x elapsed=0:00:02.04    \nframe=    7 fps=2.3 q=52.0 size=       1KiB time=00:00:00.11 bitrate=  43.4kbits/s speed=0.0384x elapsed=0:00:03.04    \nframe=    9 fps=2.4 q=52.0 size=       1KiB time=00:00:00.15 bitrate=  33.8kbits/s speed=0.0404x elapsed=0:00:03.71    \nframe=   10 fps=2.4 q=53.0 size=       1KiB time=00:00:00.16 bitrate=  30.4kbits/s speed=0.0392x elapsed=0:00:04.25    \nframe=   11 fps=2.3 q=55.0 size=       1KiB time=00:00:00.18 bitrate=  27.6kbits/s speed=0.0385x elapsed=0:00:04.76    \nframe=   13 fps=2.4 q=48.0 size=       1KiB time=00:00:00.21 bitrate=  23.4kbits/s speed=0.0399x elapsed=0:00:05.43    \nframe=   15 fps=2.5 q=55.0 size=       1KiB time=00:00:00.25 bitrate=  20.3kbits/s speed=0.0415x elapsed=0:00:06.02    \nframe=   17 fps=2.6 q=54.0 size=       1KiB time=00:00:00.28 bitrate=  17.9kbits/s speed=0.043x elapsed=0:00:06.58    \nframe=   20 fps=2.7 q=54.0 size=       1KiB time=00:00:00.31 bitrate=  16.0kbits/s speed=0.0427x elapsed=0:00:07.41    \nframe=   23 fps=2.8 q=54.0 size=       1KiB time=00:00:00.36 bitrate=  13.8kbits/s speed=0.0448x elapsed=0:00:08.18    \nframe=   24 fps=2.7 q=54.0 size=       1KiB time=00:00:00.40 bitrate=  12.7kbits/s speed=0.0446x elapsed=0:00:08.97    \nframe=   26 fps=2.7 q=54.0 size=       1KiB time=00:00:00.43 bitrate=  11.7kbits/s speed=0.0457x elapsed=0:00:09.49    \nframe=   28 fps=2.8 q=54.0 size=       1KiB time=00:00:00.46 bitrate=  10.9kbits/s speed=0.0466x elapsed=0:00:10.00    \nframe=   30 fps=2.9 q=56.0 size=       1KiB time=00:00:00.50 bitrate=  10.1kbits/s speed=0.0475x elapsed=0:00:10.51    \nframe=   32 fps=2.9 q=56.0 size=       1KiB time=00:00:00.53 bitrate=   9.5kbits/s speed=0.0483x elapsed=0:00:11.03    \nframe=   34 fps=2.9 q=56.0 size=       1KiB time=00:00:00.56 bitrate=   8.9kbits/s speed=0.0491x elapsed=0:00:11.54    \nframe=   36 fps=3.0 q=56.0 size=       1KiB time=00:00:00.60 bitrate=   8.4kbits/s speed=0.0497x elapsed=0:00:12.06    \nframe=   38 fps=3.0 q=53.0 size=       1KiB time=00:00:00.63 bitrate=   8.0kbits/s speed=0.0503x elapsed=0:00:12.59    \nframe=   40 fps=3.1 q=53.0 size=       1KiB time=00:00:00.66 bitrate=   7.6kbits/s speed=0.0509x elapsed=0:00:13.10    \nframe=   42 fps=3.1 q=52.0 size=       1KiB time=00:00:00.70 bitrate=   7.2kbits/s speed=0.0514x elapsed=0:00:13.62    \nframe=   45 fps=3.2 q=52.0 size=       1KiB time=00:00:00.75 bitrate=   6.8kbits/s speed=0.0531x elapsed=0:00:14.13    \nframe=   48 fps=3.3 q=52.0 size=       1KiB time=00:00:00.80 bitrate=   6.3kbits/s speed=0.0546x elapsed=0:00:14.64    \nframe=   52 fps=3.4 q=51.0 size=       1KiB time=00:00:00.86 bitrate=   5.8kbits/s speed=0.0572x elapsed=0:00:15.16    \nframe=   55 fps=3.5 q=50.0 size=       1KiB time=00:00:00.91 bitrate=   5.5kbits/s speed=0.0584x elapsed=0:00:15.68    \nframe=   57 fps=3.5 q=50.0 size=       1KiB time=00:00:00.95 bitrate=   5.3kbits/s speed=0.0587x elapsed=0:00:16.19    \nframe=   60 fps=3.6 q=49.0 size=       1KiB time=00:00:01.00 bitrate=   5.1kbits/s speed=0.0598x elapsed=0:00:16.71    \nframe=   63 fps=3.7 q=47.0 size=       1KiB time=00:00:01.05 bitrate=   4.8kbits/s speed=0.0609x elapsed=0:00:17.23    \nframe=   65 fps=3.7 q=47.0 size=       1KiB time=00:00:01.08 bitrate=   4.7kbits/s speed=0.0611x elapsed=0:00:17.73    \nframe=   67 fps=3.7 q=49.0 size=       1KiB time=00:00:01.11 bitrate=   4.5kbits/s speed=0.0612x elapsed=0:00:18.25    \nframe=   68 fps=3.6 q=50.0 size=       1KiB time=00:00:01.13 bitrate=   4.5kbits/s speed=0.0604x elapsed=0:00:18.77    \nframe=   70 fps=3.6 q=51.0 size=       1KiB time=00:00:01.16 bitrate=   4.3kbits/s speed=0.0605x elapsed=0:00:19.29    \nframe=   72 fps=3.6 q=52.0 size=       1KiB time=00:00:01.20 bitrate=   4.2kbits/s speed=0.0606x elapsed=0:00:19.80    \nframe=   73 fps=3.6 q=37.0 size=       1KiB time=00:00:01.21 bitrate=   4.2kbits/s speed=0.0599x elapsed=0:00:20.31    \nframe=   75 fps=3.6 q=52.0 size=       1KiB time=00:00:01.25 bitrate=   4.1kbits/s speed=0.06x elapsed=0:00:20.83    \nframe=   76 fps=3.6 q=52.0 size=       1KiB time=00:00:01.26 bitrate=   4.0kbits/s speed=0.0593x elapsed=0:00:21.35    \nframe=   78 fps=3.6 q=54.0 size=       1KiB time=00:00:01.30 bitrate=   3.9kbits/s speed=0.0594x elapsed=0:00:21.86    \nframe=   80 fps=3.6 q=55.0 size=       1KiB time=00:00:01.33 bitrate=   3.8kbits/s speed=0.0596x elapsed=0:00:22.38    \nframe=   81 fps=3.5 q=56.0 size=       1KiB time=00:00:01.35 bitrate=   3.8kbits/s speed=0.059x elapsed=0:00:22.89    \nframe=   83 fps=3.5 q=56.0 size=       1KiB time=00:00:01.38 bitrate=   3.7kbits/s speed=0.0591x elapsed=0:00:23.41    \nframe=   84 fps=3.5 q=56.0 size=       1KiB time=00:00:01.40 bitrate=   3.6kbits/s speed=0.0585x elapsed=0:00:23.93    \nframe=   86 fps=3.5 q=56.0 size=       1KiB time=00:00:01.43 bitrate=   3.5kbits/s speed=0.0586x elapsed=0:00:24.44    \nframe=   88 fps=3.5 q=56.0 size=       1KiB time=00:00:01.46 bitrate=   3.5kbits/s speed=0.0588x elapsed=0:00:24.95    \nframe=   90 fps=3.5 q=56.0 size=       1KiB time=00:00:01.50 bitrate=   3.4kbits/s speed=0.0589x elapsed=0:00:25.47    \nframe=   91 fps=3.5 q=57.0 size=       1KiB time=00:00:01.51 bitrate=   3.3kbits/s speed=0.0583x elapsed=0:00:25.99    \nframe=   93 fps=3.5 q=57.0 size=       1KiB time=00:00:01.55 bitrate=   3.3kbits/s speed=0.0585x elapsed=0:00:26.50    \nframe=   95 fps=3.5 q=57.0 size=       1KiB time=00:00:01.58 bitrate=   3.2kbits/s speed=0.0586x elapsed=0:00:27.02    \nframe=   96 fps=3.5 q=57.0 size=       1KiB time=00:00:01.60 bitrate=   3.2kbits/s speed=0.0581x elapsed=0:00:27.54    \nframe=  100 fps=3.6 q=57.0 size=       1KiB time=00:00:01.66 bitrate=   3.0kbits/s speed=0.0594x elapsed=0:00:28.06    \nframe=  101 fps=3.5 q=57.0 size=       1KiB time=00:00:01.68 bitrate=   3.0kbits/s speed=0.0589x elapsed=0:00:28.57    \nframe=  103 fps=3.5 q=57.0 size=       1KiB time=00:00:01.71 bitrate=   2.9kbits/s speed=0.059x elapsed=0:00:29.09    \nframe=  105 fps=3.5 q=57.0 size=       1KiB time=00:00:01.75 bitrate=   2.9kbits/s speed=0.0591x elapsed=0:00:29.59    \nframe=  107 fps=3.5 q=57.0 size=       1KiB time=00:00:01.78 bitrate=   2.8kbits/s speed=0.0592x elapsed=0:00:30.14    \nframe=  110 fps=3.6 q=58.0 size=       1KiB time=00:00:01.83 bitrate=   2.8kbits/s speed=0.0598x elapsed=0:00:30.66    \nframe=  112 fps=3.6 q=57.0 size=       1KiB time=00:00:01.86 bitrate=   2.7kbits/s speed=0.0598x elapsed=0:00:31.19    \nframe=  115 fps=3.6 q=57.0 size=       1KiB time=00:00:01.91 bitrate=   2.6kbits/s speed=0.0604x elapsed=0:00:31.71    \nframe=  117 fps=3.6 q=57.0 size=       1KiB time=00:00:01.95 bitrate=   2.6kbits/s speed=0.0605x elapsed=0:00:32.24    \nframe=  119 fps=3.6 q=42.0 size=       1KiB time=00:00:01.98 bitrate=   2.6kbits/s speed=0.0605x elapsed=0:00:32.78    \nframe=  122 fps=3.7 q=55.0 size=       1KiB time=00:00:02.03 bitrate=   2.5kbits/s speed=0.061x elapsed=0:00:33.34    \nframe=  125 fps=3.7 q=55.0 size=       1KiB time=00:00:02.08 bitrate=   2.4kbits/s speed=0.0615x elapsed=0:00:33.86    \nframe=  127 fps=3.7 q=56.0 size=       1KiB time=00:00:02.11 bitrate=   2.4kbits/s speed=0.0616x elapsed=0:00:34.38    \nframe=  129 fps=3.7 q=41.0 size=       1KiB time=00:00:02.15 bitrate=   2.4kbits/s speed=0.0613x elapsed=0:00:35.06    \nframe=  131 fps=3.7 q=54.0 size=     256KiB time=00:00:02.18 bitrate= 960.5kbits/s speed=0.0613x elapsed=0:00:35.61    \nframe=  133 fps=3.7 q=54.0 size=     256KiB time=00:00:02.21 bitrate= 946.1kbits/s speed=0.0613x elapsed=0:00:36.13    \nframe=  137 fps=3.7 q=55.0 size=     256KiB time=00:00:02.28 bitrate= 918.5kbits/s speed=0.0623x elapsed=0:00:36.65    \nframe=  139 fps=3.7 q=55.0 size=     256KiB time=00:00:02.31 bitrate= 905.2kbits/s speed=0.0623x elapsed=0:00:37.17    \nframe=  143 fps=3.8 q=54.0 size=     256KiB time=00:00:02.38 bitrate= 879.9kbits/s speed=0.0632x elapsed=0:00:37.73    \nframe=  146 fps=3.8 q=54.0 size=     256KiB time=00:00:02.43 bitrate= 861.8kbits/s speed=0.0636x elapsed=0:00:38.23    \nframe=  148 fps=3.8 q=54.0 size=     256KiB time=00:00:02.46 bitrate= 850.2kbits/s speed=0.0636x elapsed=0:00:38.76    \nframe=  150 fps=3.8 q=53.0 size=     256KiB time=00:00:02.50 bitrate= 838.9kbits/s speed=0.0636x elapsed=0:00:39.28    \nframe=  153 fps=3.8 q=52.0 size=     256KiB time=00:00:02.53 bitrate= 827.8kbits/s speed=0.0635x elapsed=0:00:39.86    \nframe=  155 fps=3.8 q=51.0 size=     256KiB time=00:00:02.58 bitrate= 811.8kbits/s speed=0.0638x elapsed=0:00:40.50    \nframe=  158 fps=3.8 q=51.0 size=     256KiB time=00:00:02.63 bitrate= 796.4kbits/s speed=0.0641x elapsed=0:00:41.06    \nframe=  161 fps=3.9 q=53.0 size=     256KiB time=00:00:02.68 bitrate= 781.5kbits/s speed=0.0645x elapsed=0:00:41.62    \nframe=  163 fps=3.9 q=53.0 size=     256KiB time=00:00:02.71 bitrate= 772.0kbits/s speed=0.0645x elapsed=0:00:42.12    \nframe=  167 fps=3.9 q=54.0 size=     256KiB time=00:00:02.76 bitrate= 758.0kbits/s speed=0.0649x elapsed=0:00:42.65    \nframe=  169 fps=3.9 q=54.0 size=     256KiB time=00:00:02.81 bitrate= 744.6kbits/s speed=0.0652x elapsed=0:00:43.21    \nframe=  171 fps=3.9 q=55.0 size=     256KiB time=00:00:02.85 bitrate= 735.8kbits/s speed=0.0652x elapsed=0:00:43.72    \nframe=  173 fps=3.9 q=54.0 size=     256KiB time=00:00:02.88 bitrate= 727.3kbits/s speed=0.0652x elapsed=0:00:44.23    \nframe=  175 fps=3.9 q=54.0 size=     256KiB time=00:00:02.91 bitrate= 719.0kbits/s speed=0.0651x elapsed=0:00:44.81    \nframe=  177 fps=3.9 q=54.0 size=     256KiB time=00:00:02.95 bitrate= 710.9kbits/s speed=0.0651x elapsed=0:00:45.33    \nframe=  180 fps=3.9 q=54.0 size=     256KiB time=00:00:03.00 bitrate= 699.1kbits/s speed=0.0654x elapsed=0:00:45.85    \nframe=  182 fps=3.9 q=54.0 size=     256KiB time=00:00:03.03 bitrate= 691.4kbits/s speed=0.0654x elapsed=0:00:46.39    \nframe=  184 fps=3.9 q=54.0 size=     256KiB time=00:00:03.06 bitrate= 683.9kbits/s speed=0.0654x elapsed=0:00:46.91    \nframe=  187 fps=3.9 q=55.0 size=     256KiB time=00:00:03.11 bitrate= 672.9kbits/s speed=0.0657x elapsed=0:00:47.44    \nframe=  188 fps=3.9 q=39.0 size=     256KiB time=00:00:03.13 bitrate= 669.3kbits/s speed=0.0653x elapsed=0:00:47.96    \nframe=  191 fps=3.9 q=54.0 size=     256KiB time=00:00:03.18 bitrate= 658.8kbits/s speed=0.0656x elapsed=0:00:48.49    \nframe=  194 fps=4.0 q=54.0 size=     256KiB time=00:00:03.23 bitrate= 648.6kbits/s speed=0.0659x elapsed=0:00:49.03    \nframe=  197 fps=4.0 q=54.0 size=     256KiB time=00:00:03.28 bitrate= 638.7kbits/s speed=0.0663x elapsed=0:00:49.55    \nframe=  199 fps=4.0 q=54.0 size=     256KiB time=00:00:03.31 bitrate= 632.3kbits/s speed=0.0662x elapsed=0:00:50.06    \nframe=  201 fps=4.0 q=54.0 size=     256KiB time=00:00:03.35 bitrate= 626.0kbits/s speed=0.0662x elapsed=0:00:50.58    \nframe=  203 fps=4.0 q=55.0 size=     256KiB time=00:00:03.38 bitrate= 619.8kbits/s speed=0.0662x elapsed=0:00:51.10    \nframe=  205 fps=4.0 q=56.0 size=     256KiB time=00:00:03.41 bitrate= 613.8kbits/s speed=0.0662x elapsed=0:00:51.61    \nframe=  207 fps=4.0 q=57.0 size=     256KiB time=00:00:03.45 bitrate= 607.9kbits/s speed=0.0662x elapsed=0:00:52.13    \nframe=  209 fps=4.0 q=58.0 size=     256KiB time=00:00:03.48 bitrate= 602.1kbits/s speed=0.0662x elapsed=0:00:52.65    \nframe=  211 fps=4.0 q=58.0 size=     256KiB time=00:00:03.51 bitrate= 596.3kbits/s speed=0.0661x elapsed=0:00:53.17    \nframe=  213 fps=4.0 q=58.0 size=     256KiB time=00:00:03.55 bitrate= 590.7kbits/s speed=0.0661x elapsed=0:00:53.69    \nframe=  215 fps=4.0 q=59.0 size=     256KiB time=00:00:03.58 bitrate= 585.3kbits/s speed=0.0661x elapsed=0:00:54.20    \nframe=  218 fps=4.0 q=60.0 size=     256KiB time=00:00:03.63 bitrate= 577.2kbits/s speed=0.0664x elapsed=0:00:54.72    \nframe=  220 fps=4.0 q=61.0 size=     256KiB time=00:00:03.66 bitrate= 572.0kbits/s speed=0.0663x elapsed=0:00:55.26    \nframe=  223 fps=4.0 q=60.0 size=     256KiB time=00:00:03.71 bitrate= 564.3kbits/s speed=0.0666x elapsed=0:00:55.79    \nframe=  224 fps=4.0 q=45.0 size=     256KiB time=00:00:03.73 bitrate= 561.7kbits/s speed=0.0663x elapsed=0:00:56.32    \nframe=  226 fps=4.0 q=61.0 size=     256KiB time=00:00:03.76 bitrate= 556.8kbits/s speed=0.0663x elapsed=0:00:56.84    \nframe=  228 fps=4.0 q=62.0 size=     256KiB time=00:00:03.80 bitrate= 551.9kbits/s speed=0.0662x elapsed=0:00:57.36    \nframe=  230 fps=4.0 q=62.0 size=     256KiB time=00:00:03.83 bitrate= 547.1kbits/s speed=0.0662x elapsed=0:00:57.88    \nframe=  233 fps=4.0 q=62.0 size=     256KiB time=00:00:03.88 bitrate= 540.0kbits/s speed=0.0665x elapsed=0:00:58.41    \nframe=  235 fps=4.0 q=61.0 size=     256KiB time=00:00:03.91 bitrate= 535.4kbits/s speed=0.0664x elapsed=0:00:58.95    \nframe=  237 fps=4.0 q=63.0 size=     256KiB time=00:00:03.95 bitrate= 530.9kbits/s speed=0.0664x elapsed=0:00:59.47    \nframe=  240 fps=4.0 q=62.0 size=     256KiB time=00:00:04.00 bitrate= 524.3kbits/s speed=0.0667x elapsed=0:00:59.98    \nframe=  241 fps=4.0 q=62.0 size=     256KiB time=00:00:04.01 bitrate= 522.1kbits/s speed=0.0664x elapsed=0:01:00.50    \nframe=  244 fps=4.0 q=62.0 size=     256KiB time=00:00:04.06 bitrate= 515.7kbits/s speed=0.0666x elapsed=0:01:01.02    \nframe=  246 fps=4.0 q=62.0 size=     256KiB time=00:00:04.10 bitrate= 511.5kbits/s speed=0.0666x elapsed=0:01:01.57    \nframe=  249 fps=4.0 q=60.0 size=     256KiB time=00:00:04.15 bitrate= 505.3kbits/s speed=0.0668x elapsed=0:01:02.09    \nframe=  251 fps=4.0 q=59.0 size=     256KiB time=00:00:04.18 bitrate= 501.3kbits/s speed=0.0668x elapsed=0:01:02.62    \nframe=  254 fps=4.0 q=59.0 size=     256KiB time=00:00:04.23 bitrate= 495.4kbits/s speed=0.0671x elapsed=0:01:03.13    \nframe=  256 fps=4.0 q=58.0 size=     256KiB time=00:00:04.26 bitrate= 491.5kbits/s speed=0.067x elapsed=0:01:03.65    \nframe=  258 fps=4.0 q=56.0 size=     512KiB time=00:00:04.30 bitrate= 975.4kbits/s speed=0.067x elapsed=0:01:04.19    \nframe=  261 fps=4.0 q=56.0 size=     512KiB time=00:00:04.35 bitrate= 964.2kbits/s speed=0.0672x elapsed=0:01:04.73    \nframe=  264 fps=4.0 q=55.0 size=     512KiB time=00:00:04.40 bitrate= 953.3kbits/s speed=0.0674x elapsed=0:01:05.25    \nframe=  268 fps=4.1 q=55.0 size=     512KiB time=00:00:04.46 bitrate= 939.0kbits/s speed=0.0679x elapsed=0:01:05.77    \nframe=  270 fps=4.1 q=57.0 size=     512KiB time=00:00:04.50 bitrate= 932.1kbits/s speed=0.0679x elapsed=0:01:06.29    \nframe=  274 fps=4.1 q=55.0 size=     512KiB time=00:00:04.56 bitrate= 918.5kbits/s speed=0.0683x elapsed=0:01:06.82    \nframe=  276 fps=4.1 q=54.0 size=     512KiB time=00:00:04.60 bitrate= 911.8kbits/s speed=0.0683x elapsed=0:01:07.34    \nframe=  276 fps=4.1 q=54.0 size=     512KiB time=00:00:04.60 bitrate= 911.8kbits/s speed=0.0678x elapsed=0:01:07.88    \nframe=  276 fps=4.0 q=54.0 size=     512KiB time=00:00:04.60 bitrate= 911.8kbits/s speed=0.0672x elapsed=0:01:08.40    \nframe=  276 fps=4.0 q=54.0 size=     512KiB time=00:00:04.60 bitrate= 911.8kbits/s speed=0.0667x elapsed=0:01:08.93    \nframe=  276 fps=4.0 q=54.0 size=     512KiB time=00:00:04.60 bitrate= 911.8kbits/s speed=0.0662x elapsed=0:01:09.45    \nframe=  276 fps=3.9 q=54.0 size=     512KiB time=00:00:04.60 bitrate= 911.8kbits/s speed=0.0657x elapsed=0:01:09.97    \nframe=  276 fps=3.9 q=54.0 size=     512KiB time=00:00:04.60 bitrate= 911.8kbits/s speed=0.0652x elapsed=0:01:10.50    \nframe=  276 fps=3.9 q=54.0 size=     512KiB time=00:00:04.60 bitrate= 911.8kbits/s speed=0.0647x elapsed=0:01:11.05    \n[out#0/webm @ 00000237a3228f80] video:876KiB audio:0KiB subtitle:0KiB other streams:0KiB global headers:0KiB muxing overhead: 0.315261%\nframe=  300 fps=4.2 q=51.0 Lsize=     879KiB time=00:00:05.00 bitrate=1439.8kbits/s speed=0.0699x elapsed=0:01:11.52    \n",
  "seconds": 72.98576211929321,
  "probe_out": {}
}